<svg width="640" height="480" viewBox="0 0 640 480" fill="none" xmlns="http://www.w3.org/2000/svg">
  <rect width="640" height="480" rx="28" fill="url(#bg)"/>
  <rect x="60" y="82" width="520" height="316" rx="26" fill="#F6FBFF"/>
  <rect x="112" y="120" width="188" height="202" rx="22" fill="#10314A"/>
  <rect x="136" y="148" width="140" height="20" rx="10" fill="#D9EEFA"/>
  <rect x="136" y="188" width="108" height="18" rx="9" fill="#84D0F7"/>
  <rect x="136" y="224" width="128" height="18" rx="9" fill="#84D0F7"/>
  <rect x="136" y="260" width="92" height="18" rx="9" fill="#84D0F7"/>
  <path d="M354 294L404 246L446 284L520 198" stroke="#F2C552" stroke-width="12" stroke-linecap="round" stroke-linejoin="round"/>
  <circle cx="354" cy="294" r="12" fill="#1B678F"/>
  <circle cx="404" cy="246" r="12" fill="#1B678F"/>
  <circle cx="446" cy="284" r="12" fill="#1B678F"/>
  <circle cx="520" cy="198" r="12" fill="#1B678F"/>
  <path d="M352 352H528" stroke="#1B678F" stroke-width="10" stroke-linecap="round"/>
  <defs>
    <linearGradient id="bg" x1="46" y1="38" x2="598" y2="438" gradientUnits="userSpaceOnUse">
      <stop stop-color="#F0F8FC"/>
      <stop offset="1" stop-color="#BFDCEA"/>
    </linearGradient>
  </defs>
</svg>
