<svg width="700" height="780" viewBox="0 0 700 780" fill="none" xmlns="http://www.w3.org/2000/svg">
  <rect width="700" height="780" rx="36" fill="url(#bg)"/>
  <circle cx="556" cy="146" r="84" fill="#8FD8FF" fill-opacity="0.32"/>
  <circle cx="154" cy="656" r="126" fill="#12496F" fill-opacity="0.14"/>
  <rect x="108" y="214" width="484" height="390" rx="34" fill="#F4FBFF"/>
  <rect x="150" y="460" width="400" height="44" rx="18" fill="#18486A"/>
  <rect x="182" y="236" width="94" height="250" rx="20" fill="#1F6B97"/>
  <rect x="294" y="196" width="110" height="290" rx="22" fill="#0F3959"/>
  <rect x="422" y="270" width="100" height="216" rx="22" fill="#2F88B6"/>
  <rect x="196" y="258" width="66" height="34" rx="12" fill="#E7F5FD"/>
  <rect x="316" y="220" width="66" height="34" rx="12" fill="#E7F5FD"/>
  <rect x="440" y="294" width="66" height="34" rx="12" fill="#E7F5FD"/>
  <path d="M168 514H530" stroke="#F3C95A" stroke-width="14" stroke-linecap="round"/>
  <path d="M230 518V592" stroke="#F3C95A" stroke-width="12" stroke-linecap="round"/>
  <path d="M470 518V592" stroke="#F3C95A" stroke-width="12" stroke-linecap="round"/>
  <rect x="128" y="592" width="468" height="44" rx="18" fill="#0E2438"/>
  <path d="M94 244C139 201 204 174 276 172" stroke="#E8F7FF" stroke-width="14" stroke-linecap="round" stroke-opacity="0.45"/>
  <path d="M454 626C516 604 568 558 594 500" stroke="#E8F7FF" stroke-width="14" stroke-linecap="round" stroke-opacity="0.4"/>
  <defs>
    <linearGradient id="bg" x1="56" y1="50" x2="624" y2="736" gradientUnits="userSpaceOnUse">
      <stop stop-color="#F3F9FD"/>
      <stop offset="0.52" stop-color="#DDECF6"/>
      <stop offset="1" stop-color="#B8D6E8"/>
    </linearGradient>
  </defs>
</svg>
