<svg width="700" height="780" viewBox="0 0 700 780" fill="none" xmlns="http://www.w3.org/2000/svg">
  <rect width="700" height="780" rx="36" fill="url(#bg)"/>
  <circle cx="564" cy="138" r="88" fill="#F2CE61" fill-opacity="0.24"/>
  <circle cx="142" cy="648" r="138" fill="#17324A" fill-opacity="0.42"/>
  <rect x="108" y="212" width="484" height="392" rx="34" fill="#161B22"/>
  <rect x="128" y="232" width="444" height="352" rx="28" fill="url(#panel)"/>
  <rect x="154" y="456" width="396" height="44" rx="18" fill="#101722"/>
  <rect x="178" y="250" width="102" height="244" rx="22" fill="url(#tank1)"/>
  <rect x="296" y="202" width="114" height="292" rx="24" fill="url(#tank2)"/>
  <rect x="430" y="274" width="98" height="220" rx="24" fill="url(#tank3)"/>
  <rect x="198" y="270" width="60" height="28" rx="12" fill="#F4E5AE" fill-opacity="0.85"/>
  <rect x="322" y="228" width="64" height="28" rx="12" fill="#F4E5AE" fill-opacity="0.85"/>
  <rect x="446" y="300" width="64" height="28" rx="12" fill="#F4E5AE" fill-opacity="0.85"/>
  <path d="M170 514H528" stroke="#D2A53A" stroke-width="14" stroke-linecap="round"/>
  <path d="M230 516V590" stroke="#D2A53A" stroke-width="12" stroke-linecap="round"/>
  <path d="M468 516V590" stroke="#D2A53A" stroke-width="12" stroke-linecap="round"/>
  <rect x="126" y="590" width="468" height="44" rx="18" fill="#090C12"/>
  <path d="M102 246C150 196 212 172 280 168" stroke="#F3D889" stroke-width="14" stroke-linecap="round" stroke-opacity="0.28"/>
  <path d="M454 624C520 600 570 556 596 502" stroke="#EBC764" stroke-width="14" stroke-linecap="round" stroke-opacity="0.22"/>
  <defs>
    <linearGradient id="bg" x1="52" y1="46" x2="624" y2="730" gradientUnits="userSpaceOnUse">
      <stop stop-color="#15100A"/>
      <stop offset="0.55" stop-color="#241C10"/>
      <stop offset="1" stop-color="#0B0907"/>
    </linearGradient>
    <linearGradient id="panel" x1="140" y1="234" x2="560" y2="564" gradientUnits="userSpaceOnUse">
      <stop stop-color="#18202A"/>
      <stop offset="0.42" stop-color="#263444"/>
      <stop offset="1" stop-color="#11161D"/>
    </linearGradient>
    <linearGradient id="tank1" x1="178" y1="250" x2="280" y2="494" gradientUnits="userSpaceOnUse">
      <stop stop-color="#E4BC58"/>
      <stop offset="0.22" stop-color="#7E6322"/>
      <stop offset="0.52" stop-color="#D7B24D"/>
      <stop offset="1" stop-color="#55461A"/>
    </linearGradient>
    <linearGradient id="tank2" x1="296" y1="202" x2="410" y2="494" gradientUnits="userSpaceOnUse">
      <stop stop-color="#243748"/>
      <stop offset="0.4" stop-color="#C39C35"/>
      <stop offset="0.7" stop-color="#1D2B38"/>
      <stop offset="1" stop-color="#8B6A1E"/>
    </linearGradient>
    <linearGradient id="tank3" x1="430" y1="274" x2="528" y2="494" gradientUnits="userSpaceOnUse">
      <stop stop-color="#D6AF47"/>
      <stop offset="0.34" stop-color="#3B4E60"/>
      <stop offset="0.62" stop-color="#F0CD62"/>
      <stop offset="1" stop-color="#2A3440"/>
    </linearGradient>
  </defs>
</svg>
